{"title":"Pacific.Rim.2.Uprising.2018.HC.HDRip.XviD.AC3.With.Sample.LLLG","magnet":"magnet:?xt=urn:btih:9e2854c797eca8dc5c353567046a73c868453758&dn=Pacific.Rim.2.Uprising.2018.HC.HDRip.XviD.AC3.With.Sample.LLLG&tr=udp%3A%2F%2Ftracker.leechers-paradise.org%3A6969&tr=udp%3A%2F%2Fzer0day.ch%3A1337&tr=udp%3A%2F%2Fopen.demonii.com%3A1337&tr=udp%3A%2F%2Ftracker.coppersurfer.tk%3A6969&tr=udp%3A%2F%2Fexodus.desync.com%3A6969","uploader":"LifeLongg","categoryP":"video","categoryS":"movies","size":"875601706","seeders":"0","leechers":"0","description":"******************************Screenshots:********************\r\n <a href=\"\nhttp://picserver4u.com/d/0601.html\" rel=\"nofollow\" target=\"_NEW\">\nhttp://picserver4u.com/d/0601.html</a>\r\n <a href=\"\nhttp://picserver4u.com/d/0602.html\" rel=\"nofollow\" target=\"_NEW\">\nhttp://picserver4u.com/d/0602.html</a>\r\n <a href=\"\nhttp://picserver4u.com/d/0603.html\" rel=\"nofollow\" target=\"_NEW\">\nhttp://picserver4u.com/d/0603.html</a>\r\n <a href=\"\nhttp://picserver4u.com/d/0604.html\" rel=\"nofollow\" target=\"_NEW\">\nhttp://picserver4u.com/d/0604.html</a>\r\n <a href=\"\nhttp://picserver4u.com/d/0605.html\" rel=\"nofollow\" target=\"_NEW\">\nhttp://picserver4u.com/d/0605.html</a>\r\n\r\n************************************************************** \r\n\r\nComplete name                            : Pacific.Rim.2.Uprising.2018.HC.HDRip.XviD.AC3.With.Sample.LLG.mp4\r\nFormat                                   : MPEG-4\r\nFormat profile                           : Base Media\r\nCodec ID                                 : isom (isom/iso2/avc1/mp41)\r\nFile size                                : 819 MiB\r\nDuration                                 : 1 h 50 min\r\nOverall bit rate                         : 1 034 kb/s\r\nWriting application                      : Lavf57.56.101\r\n\r\nVideo\r\nID                                       : 1\r\nFormat                                   : AVC\r\nFormat/Info                              : Advanced Video Codec\r\nFormat profile                           : <a href=\"/cdn-cgi/l/email-protection\" class=\"__cf_email__\" data-cfemail=\"6a22030d022a2659\">[email&#xA0;protected]</a>\r\nFormat settings                          : CABAC / 4 Ref Frames\r\nFormat settings, CABAC                   : Yes\r\nFormat settings, RefFrames               : 4 frames\r\nCodec ID                                 : avc1\r\nCodec ID/Info                            : Advanced Video Coding\r\nDuration                                 : 1 h 50 min\r\nBit rate                                 : 900 kb/s\r\nWidth                                    : 720 pixels\r\nHeight                                   : 304 pixels\r\nDisplay aspect ratio                     : 2.35:1\r\nFrame rate mode                          : Constant\r\nFrame rate                               : 29.970 (29970/1000) FPS\r\nColor space                              : YUV\r\nChroma subsampling                       : 4:2:0\r\nBit depth                                : 8 bits\r\nScan type                                : Progressive\r\nBits/(Pixel*Frame)                       : 0.137\r\nStream size                              : 713 MiB (87%)\r\n\r\nAudio\r\nID                                       : 2\r\nFormat                                   : AC-3\r\nFormat/Info                              : Audio Coding 3\r\nCodec ID                                 : ac-3\r\nDuration                                 : 1 h 50 min\r\nBit rate mode                            : Constant\r\nBit rate                                 : 128 kb/s\r\nChannel(s)                               : 2 channels\r\nChannel positions                        : Front: L R\r\nSampling rate                            : 48.0 kHz\r\nFrame rate                               : 31.250 FPS (1536 SPF)\r\nBit depth                                : 16 bits\r\nCompression mode                         : Lossy\r\nStream size                              : 101 MiB (12%)\r\nTitle                                    : T2_Audio - English\r\nService kind                             : Complete Main\r\nDefault                                  : Yes\r\nAlternate group                          : 1","last_updated":"2018-04-19T12:43:29.252Z","parsed":{"xt":"urn:btih:9e2854c797eca8dc5c353567046a73c868453758","dn":"Pacific.Rim.2.Uprising.2018.HC.HDRip.XviD.AC3.With.Sample.LLLG","tr":["udp://exodus.desync.com:6969","udp://open.demonii.com:1337","udp://tracker.coppersurfer.tk:6969","udp://tracker.leechers-paradise.org:6969","udp://zer0day.ch:1337"],"infoHash":"9e2854c797eca8dc5c353567046a73c868453758","infoHashBuffer":{"type":"Buffer","data":[158,40,84,199,151,236,168,220,92,53,53,103,4,106,115,200,104,69,55,88]},"name":"Pacific.Rim.2.Uprising.2018.HC.HDRip.XviD.AC3.With.Sample.LLLG","announce":["udp://exodus.desync.com:6969","udp://open.demonii.com:1337","udp://tracker.coppersurfer.tk:6969","udp://tracker.leechers-paradise.org:6969","udp://zer0day.ch:1337"],"urlList":[]}}